{
	"asset":{
		"generator":"Khronos glTF Blender I/O v4.2.57",
		"version":"2.0"
	},
	"scene":0,
	"scenes":[
		{
			"name":"Scene",
			"nodes":[
				0,
				1,
				2
			]
		}
	],
	"nodes":[
		{
			"mesh":0,
			"name":"Curve.001",
			"rotation":[
				0.7017692923545837,
				0,
				0,
				0.7124042510986328
			],
			"scale":[
				8.826047897338867,
				8.826047897338867,
				8.826047897338867
			],
			"translation":[
				-0.20753899216651917,
				-0.0759466141462326,
				-0.039839569479227066
			]
		},
		{
			"mesh":1,
			"name":"Curve.002",
			"rotation":[
				0.7098747491836548,
				0,
				0,
				0.7043280005455017
			],
			"scale":[
				8.826047897338867,
				8.826047897338867,
				8.826047897338867
			],
			"translation":[
				-0.20753899216651917,
				-0.0759466141462326,
				-0.039839569479227066
			]
		},
		{
			"mesh":2,
			"name":"Curve.003",
			"rotation":[
				0.01660051755607128,
				0.70847487449646,
				0.7047125101089478,
				0.03417712077498436
			],
			"scale":[
				8.826048851013184,
				8.826047897338867,
				8.82604694366455
			],
			"translation":[
				0.23580914735794067,
				0.37164872884750366,
				-0.03551381081342697
			]
		}
	],
	"materials":[
		{
			"doubleSided":true,
			"name":"SVGMat.010",
			"pbrMetallicRoughness":{
				"baseColorFactor":[
					0,
					0.6375975012779236,
					0.5394797921180725,
					1
				],
				"metallicFactor":0,
				"roughnessFactor":0.4000000059604645
			}
		},
		{
			"doubleSided":true,
			"name":"SVGMat.013",
			"pbrMetallicRoughness":{
				"baseColorFactor":[
					0,
					0.6375975012779236,
					0.5394797921180725,
					1
				],
				"metallicFactor":0,
				"roughnessFactor":0.4000000059604645
			}
		},
		{
			"doubleSided":true,
			"name":"SVGMat.011",
			"pbrMetallicRoughness":{
				"baseColorFactor":[
					0.8962645530700684,
					0,
					0.0021247072145342827,
					1
				],
				"metallicFactor":0,
				"roughnessFactor":0.4000000059604645
			}
		}
	],
	"meshes":[
		{
			"name":"Curve.013",
			"primitives":[
				{
					"attributes":{
						"POSITION":0,
						"NORMAL":1,
						"TEXCOORD_0":2
					},
					"indices":3,
					"material":0
				}
			]
		},
		{
			"name":"Curve.014",
			"primitives":[
				{
					"attributes":{
						"POSITION":4,
						"NORMAL":5,
						"TEXCOORD_0":6
					},
					"indices":7,
					"material":1
				}
			]
		},
		{
			"name":"Curve.017",
			"primitives":[
				{
					"attributes":{
						"POSITION":8,
						"NORMAL":9,
						"TEXCOORD_0":10
					},
					"indices":7,
					"material":2
				}
			]
		}
	],
	"accessors":[
		{
			"bufferView":0,
			"componentType":5126,
			"count":861,
			"max":[
				0.036729149520397186,
				0.0048132892698049545,
				-0.009063247591257095
			],
			"min":[
				0.011357560753822327,
				0,
				-0.03901824355125427
			],
			"type":"VEC3"
		},
		{
			"bufferView":1,
			"componentType":5126,
			"count":861,
			"type":"VEC3"
		},
		{
			"bufferView":2,
			"componentType":5126,
			"count":861,
			"type":"VEC2"
		},
		{
			"bufferView":3,
			"componentType":5123,
			"count":1677,
			"type":"SCALAR"
		},
		{
			"bufferView":4,
			"componentType":5126,
			"count":503,
			"max":[
				0.025356853380799294,
				0.0048132892698049545,
				-0.021805841475725174
			],
			"min":[
				0.019693737849593163,
				0,
				-0.027468960732221603
			],
			"type":"VEC3"
		},
		{
			"bufferView":5,
			"componentType":5126,
			"count":503,
			"type":"VEC3"
		},
		{
			"bufferView":6,
			"componentType":5126,
			"count":503,
			"type":"VEC2"
		},
		{
			"bufferView":7,
			"componentType":5123,
			"count":1023,
			"type":"SCALAR"
		},
		{
			"bufferView":8,
			"componentType":5126,
			"count":503,
			"max":[
				0.025356853380799294,
				0.0048132892698049545,
				-0.021805841475725174
			],
			"min":[
				0.019693737849593163,
				0,
				-0.027468960732221603
			],
			"type":"VEC3"
		},
		{
			"bufferView":9,
			"componentType":5126,
			"count":503,
			"type":"VEC3"
		},
		{
			"bufferView":10,
			"componentType":5126,
			"count":503,
			"type":"VEC2"
		}
	],
	"bufferViews":[
		{
			"buffer":0,
			"byteLength":10332,
			"byteOffset":0,
			"target":34962
		},
		{
			"buffer":0,
			"byteLength":10332,
			"byteOffset":10332,
			"target":34962
		},
		{
			"buffer":0,
			"byteLength":6888,
			"byteOffset":20664,
			"target":34962
		},
		{
			"buffer":0,
			"byteLength":3354,
			"byteOffset":27552,
			"target":34963
		},
		{
			"buffer":0,
			"byteLength":6036,
			"byteOffset":30908,
			"target":34962
		},
		{
			"buffer":0,
			"byteLength":6036,
			"byteOffset":36944,
			"target":34962
		},
		{
			"buffer":0,
			"byteLength":4024,
			"byteOffset":42980,
			"target":34962
		},
		{
			"buffer":0,
			"byteLength":2046,
			"byteOffset":47004,
			"target":34963
		},
		{
			"buffer":0,
			"byteLength":6036,
			"byteOffset":49052,
			"target":34962
		},
		{
			"buffer":0,
			"byteLength":6036,
			"byteOffset":55088,
			"target":34962
		},
		{
			"buffer":0,
			"byteLength":4024,
			"byteOffset":61124,
			"target":34962
		}
	],
	"buffers":[
		{
			"byteLength":65148,
			"uri":"marker-borondo1.bin"
		}
	]
}
