{
	"asset":{
		"generator":"Khronos glTF Blender I/O v4.2.57",
		"version":"2.0"
	},
	"scene":0,
	"scenes":[
		{
			"name":"Scene",
			"nodes":[
				0
			]
		}
	],
	"nodes":[
		{
			"mesh":0,
			"name":"Curve",
			"rotation":[
				0.5004510283470154,
				0.49986469745635986,
				-0.49954888224601746,
				0.5001349449157715
			]
		}
	],
	"materials":[
		{
			"doubleSided":true,
			"name":"SVGMat.002",
			"pbrMetallicRoughness":{
				"baseColorFactor":[
					0.19859568774700165,
					0.19859568774700165,
					0.19859568774700165,
					1
				],
				"metallicFactor":0,
				"roughnessFactor":0.4000000059604645
			}
		}
	],
	"meshes":[
		{
			"name":"Curve.286",
			"primitives":[
				{
					"attributes":{
						"POSITION":0,
						"NORMAL":1
					},
					"indices":2,
					"material":0
				}
			]
		}
	],
	"accessors":[
		{
			"bufferView":0,
			"componentType":5126,
			"count":21752,
			"max":[
				0.012054631486535072,
				-3.3527612686157227e-08,
				0.016484487801790237
			],
			"min":[
				-0.013318981043994427,
				-0.00396895594894886,
				-0.013470862060785294
			],
			"type":"VEC3"
		},
		{
			"bufferView":1,
			"componentType":5126,
			"count":21752,
			"type":"VEC3"
		},
		{
			"bufferView":2,
			"componentType":5123,
			"count":130488,
			"type":"SCALAR"
		}
	],
	"bufferViews":[
		{
			"buffer":0,
			"byteLength":261024,
			"byteOffset":0,
			"target":34962
		},
		{
			"buffer":0,
			"byteLength":261024,
			"byteOffset":261024,
			"target":34962
		},
		{
			"buffer":0,
			"byteLength":260976,
			"byteOffset":522048,
			"target":34963
		}
	],
	"buffers":[
		{
			"byteLength":783024,
			"uri":"marker-grey.bin"
		}
	]
}
