{"accessors" : [{"bufferView" : 0, "byteOffset" : 0, "componentType" : 5123, "count" : 1677, "type" : "SCALAR", "max" : [860], "min" : [0]}, {"bufferView" : 1, "byteOffset" : 0, "componentType" : 5126, "count" : 861, "type" : "VEC3", "max" : [0.036729149520397186, 0.0048132892698049545, -0.009063247591257095], "min" : [0.011357560753822327, 0, -0.03901824355125427], "name" : "POSITION"}, {"bufferView" : 1, "byteOffset" : 12, "componentType" : 5126, "count" : 861, "type" : "VEC3", "max" : [0.9994761347770691, 1.0000044107437134, 0.999479353427887], "min" : [-0.999479353427887, 0, -0.9994761347770691], "name" : "NORMAL"}, {"bufferView" : 1, "byteOffset" : 24, "componentType" : 5126, "count" : 861, "type" : "VEC2", "max" : [1, 2], "min" : [0, 2], "name" : "TEXCOORD_0"}, {"bufferView" : 0, "byteOffset" : 3356, "componentType" : 5123, "count" : 1023, "type" : "SCALAR", "max" : [502], "min" : [0]}, {"bufferView" : 2, "byteOffset" : 0, "componentType" : 5126, "count" : 503, "type" : "VEC3", "max" : [0.025356853380799294, 0.0048132892698049545, -0.021805841475725174], "min" : [0.019693737849593163, 0, -0.027468960732221603], "name" : "POSITION"}, {"bufferView" : 2, "byteOffset" : 12, "componentType" : 5126, "count" : 503, "type" : "VEC3", "max" : [0.9997329115867615, 1.0000044107437134, 0.9955477714538574], "min" : [-0.9955384135246277, -1.0000044107437134, -0.9997329115867615], "name" : "NORMAL"}, {"bufferView" : 2, "byteOffset" : 24, "componentType" : 5126, "count" : 503, "type" : "VEC2", "max" : [1, 2], "min" : [0, 2], "name" : "TEXCOORD_0"}, {"bufferView" : 0, "byteOffset" : 5404, "componentType" : 5123, "count" : 1023, "type" : "SCALAR", "max" : [502], "min" : [0]}, {"bufferView" : 3, "byteOffset" : 0, "componentType" : 5126, "count" : 503, "type" : "VEC3", "max" : [0.025356853380799294, 0.0048132892698049545, -0.021805841475725174], "min" : [0.019693737849593163, 0, -0.027468960732221603], "name" : "POSITION"}, {"bufferView" : 3, "byteOffset" : 12, "componentType" : 5126, "count" : 503, "type" : "VEC3", "max" : [0.9997329115867615, 1.0000044107437134, 0.9955477714538574], "min" : [-0.9955384135246277, -1.0000044107437134, -0.9997329115867615], "name" : "NORMAL"}, {"bufferView" : 3, "byteOffset" : 24, "componentType" : 5126, "count" : 503, "type" : "VEC2", "max" : [1, 2], "min" : [0, 2], "name" : "TEXCOORD_0"}], "asset" : {"generator" : "Aspose.3D 24.6.0", "version" : "2.0"}, "buffers" : [{"uri" : "data:application/octet-stream;base64,", "byteLength" : 67212}], "bufferViews" : [{"buffer" : 0, "byteOffset" : 0, "byteLength" : 7452, "target" : 34963}, {"buffer" : 0, "byteOffset" : 7456, "byteLength" : 27552, "byteStride" : 32, "target" : 34962}, {"buffer" : 0, "byteOffset" : 35012, "byteLength" : 16096, "byteStride" : 32, "target" : 34962}, {"buffer" : 0, "byteOffset" : 51112, "byteLength" : 16096, "byteStride" : 32, "target" : 34962}], "materials" : [{"name" : "SVGMat.010", "pbrMetallicRoughness" : {"baseColorFactor" : [0, 0.6375975012779236, 0.5394797921180725, 1], "metallicFactor" : 0, "roughnessFactor" : 0.4000000059604645}, "emissiveFactor" : [0, 0, 0], "alphaMode" : "OPAQUE", "doubleSided" : true}, {"name" : "SVGMat.013", "pbrMetallicRoughness" : {"baseColorFactor" : [0, 0.6375975012779236, 0.5394797921180725, 1], "metallicFactor" : 0, "roughnessFactor" : 0.4000000059604645}, "emissiveFactor" : [0, 0, 0], "alphaMode" : "OPAQUE", "doubleSided" : true}, {"name" : "SVGMat.011", "pbrMetallicRoughness" : {"baseColorFactor" : [0.8962645530700684, 0, 0.0021247072145342827, 1], "metallicFactor" : 0, "roughnessFactor" : 0.4000000059604645}, "emissiveFactor" : [0, 0, 0], "alphaMode" : "OPAQUE", "doubleSided" : true}], "meshes" : [{"primitives" : [{"attributes" : {"POSITION" : 1, "NORMAL" : 2, "TEXCOORD_0" : 3}, "indices" : 0, "material" : 0, "mode" : 4}]}, {"primitives" : [{"attributes" : {"POSITION" : 5, "NORMAL" : 6, "TEXCOORD_0" : 7}, "indices" : 4, "material" : 1, "mode" : 4}]}, {"primitives" : [{"attributes" : {"POSITION" : 9, "NORMAL" : 10, "TEXCOORD_0" : 11}, "indices" : 8, "material" : 2, "mode" : 4}]}], "nodes" : [{"matrix" : [8.826047897338867, 0, 0, 0, 0, 0.1327412945220017, 8.825049268216384, 0, 0, -8.825049268216384, 0.1327412945220017, 0, -0.20753899216651917, -0.0759466141462326, -0.039839569479227066, 1], "mesh" : 0, "name" : "Curve.001"}, {"matrix" : [8.826047897338867, 0, 0, 0, 0, -0.06923433572009252, 8.825777162384243, 0, 0, -8.825777162384243, -0.06923433572009252, 0, -0.20753899216651917, -0.0759466141462326, -0.039839569479227066, 1], "mesh" : 1, "name" : "Curve.002"}, {"matrix" : [-8.800565747855995, 0.632758756379244, -0.22091669038998962, 0, -0.21754433991634584, 0.05480447792686525, 8.823196466908975, 0, 0.6339259452981242, 8.803165403937284, -0.03905040297455389, 0, 0.23580914735794067, 0.37164872884750366, -0.03551381081342697, 1], "mesh" : 2, "name" : "Curve.003"}], "scene" : 0, "scenes" : [{"nodes" : [0, 1, 2]}]}