{
	"asset":{
		"generator":"Khronos glTF Blender I/O v4.2.57",
		"version":"2.0"
	},
	"scene":0,
	"scenes":[
		{
			"name":"Scene",
			"nodes":[
				0
			]
		}
	],
	"nodes":[
		{
			"mesh":0,
			"name":"Curve.001",
			"rotation":[
				0.5,
				0.5,
				-0.5,
				0.5
			]
		}
	],
	"materials":[
		{
			"doubleSided":true,
			"name":"SVGMat.001",
			"pbrMetallicRoughness":{
				"baseColorFactor":[
					0.06480222195386887,
					0.4910212755203247,
					0.46207714080810547,
					1
				],
				"metallicFactor":0,
				"roughnessFactor":0.4000000059604645
			}
		}
	],
	"meshes":[
		{
			"name":"Curve.002",
			"primitives":[
				{
					"attributes":{
						"POSITION":0,
						"NORMAL":1
					},
					"indices":2,
					"material":0
				}
			]
		}
	],
	"accessors":[
		{
			"bufferView":0,
			"componentType":5126,
			"count":86712,
			"max":[
				0.012341953814029694,
				-3.725290298461914e-09,
				0.016290860250592232
			],
			"min":[
				-0.013029662892222404,
				-0.0037443209439516068,
				-0.013665631413459778
			],
			"type":"VEC3"
		},
		{
			"bufferView":1,
			"componentType":5126,
			"count":86712,
			"type":"VEC3"
		},
		{
			"bufferView":2,
			"componentType":5125,
			"count":520260,
			"type":"SCALAR"
		}
	],
	"bufferViews":[
		{
			"buffer":0,
			"byteLength":1040544,
			"byteOffset":0,
			"target":34962
		},
		{
			"buffer":0,
			"byteLength":1040544,
			"byteOffset":1040544,
			"target":34962
		},
		{
			"buffer":0,
			"byteLength":2081040,
			"byteOffset":2081088,
			"target":34963
		}
	],
	"buffers":[
		{
			"byteLength":4162128,
			"uri":"marker-ok.bin"
		}
	]
}
